<?xml version="1.0" encoding="utf-8"?>
<!-- Generator: Adobe Illustrator 17.1.0, SVG Export Plug-In . SVG Version: 6.00 Build 0)  -->
<!DOCTYPE svg PUBLIC "-//W3C//DTD SVG 1.1//EN" "http://www.w3.org/Graphics/SVG/1.1/DTD/svg11.dtd">
<svg version="1.1" id="Layer_1" xmlns="http://www.w3.org/2000/svg" xmlns:xlink="http://www.w3.org/1999/xlink" x="0px" y="0px"
	 viewBox="0 0 48 48" enable-background="new 0 0 48 48" xml:space="preserve">
<g>
	<polygon fill="#280FE8" points="24.1,36 13.1,25 15.8,15.8 25,13.1 36,24.1 34.7,25.4 24.5,15.1 17.3,17.3 15.1,24.5 25.4,34.7 
		24.1,36 	"/>
	<path fill="#280FE8" d="M37.2,25.5c-0.6,0-1.2,0.1-1.9,0.3c-1.9,0.6-4,1.9-5.8,3.7c-1.8,1.8-3.1,3.8-3.7,5.8
		c-0.4,1.2-0.4,2.2-0.2,3l12.6-12.6C37.9,25.5,37.6,25.5,37.2,25.5L37.2,25.5z M25.5,41l-0.6-0.6c-1.2-1.2-1.5-3.2-0.8-5.6
		c0.7-2.2,2.2-4.5,4.2-6.5c2-2,4.3-3.5,6.5-4.2c2.4-0.7,4.4-0.5,5.6,0.8l0.6,0.6L25.5,41L25.5,41z"/>
	<polygon fill="#280FE8" points="33.6,34.9 31.9,33.2 33.2,31.9 34.9,33.6 33.6,34.9 	"/>
	<path fill="#280FE8" d="M35.4,34.6c-0.2,0-0.4,0.1-0.5,0.2c-0.3,0.3-0.3,0.7,0,1c0.3,0.3,0.7,0.3,1,0c0.3-0.3,0.3-0.7,0-1
		C35.7,34.7,35.6,34.6,35.4,34.6L35.4,34.6z M35.4,37.9c-0.7,0-1.3-0.2-1.8-0.7c-1-1-1-2.6,0-3.6c1-1,2.6-1,3.6,0v0c1,1,1,2.6,0,3.6
		C36.7,37.7,36,37.9,35.4,37.9L35.4,37.9z"/>
	<polygon fill="#280FE8" points="9.3,40 8,38.7 18,28.7 19.3,30 9.3,40 	"/>
	<path fill="#280FE8" d="M4.6,37.3l6.1,6.1l8-8l-6.1-6.1L4.6,37.3L4.6,37.3z M10.7,46L2,37.3l10.5-10.5l8.7,8.7L10.7,46L10.7,46z"/>
	<polygon fill="#280FE8" points="30,19.3 28.7,18 38.7,8 40,9.3 30,19.3 	"/>
	<path fill="#280FE8" d="M29.4,12.5l6.1,6.1l8-8l-6.1-6.1L29.4,12.5L29.4,12.5z M35.5,21.2l-8.7-8.7L37.3,2l8.7,8.7L35.5,21.2
		L35.5,21.2z"/>
	<polygon fill="#280FE8" points="25.3,33.2 19.7,27.6 21,26.3 26.6,31.9 25.3,33.2 	"/>
	<polygon fill="#280FE8" points="18.8,26.7 17.4,25.3 18.7,24 20.1,25.4 18.8,26.7 	"/>
	<polygon fill="#280FE8" points="42.1,43.4 37.9,39.2 39.2,37.9 43.4,42.1 42.1,43.4 	"/>
	<polygon fill="#280FE8" points="39.4,42.3 37.6,42.3 37.6,37.6 42.3,37.6 42.3,39.4 39.4,39.4 39.4,42.3 	"/>
	<polygon fill="#280FE8" points="1.6,47.7 0.3,46.4 4.5,42.2 5.8,43.5 1.6,47.7 	"/>
	<polygon fill="#280FE8" points="4.7,48 0,48 0,43.3 1.8,43.3 1.8,46.2 4.7,46.2 4.7,48 	"/>
	<polygon fill="#280FE8" points="43.5,5.8 42.2,4.5 46.4,0.3 47.7,1.6 43.5,5.8 	"/>
	<polygon fill="#280FE8" points="48,4.7 46.2,4.7 46.2,1.8 43.3,1.8 43.3,0 48,0 48,4.7 	"/>
</g>
</svg>
