<?xml version="1.0" encoding="utf-8"?>
<!-- Generator: Adobe Illustrator 17.1.0, SVG Export Plug-In . SVG Version: 6.00 Build 0)  -->
<!DOCTYPE svg PUBLIC "-//W3C//DTD SVG 1.1 Tiny//EN" "http://www.w3.org/Graphics/SVG/1.1/DTD/svg11-tiny.dtd">
<svg version="1.1" baseProfile="tiny" id="Layer_1" xmlns="http://www.w3.org/2000/svg" xmlns:xlink="http://www.w3.org/1999/xlink"
	 x="0px" y="0px" viewBox="0 0 48 48" xml:space="preserve">
<g>
	<g display="none">
		<g display="inline">
			<path fill="#2C17E6" d="M15.7,28.3c4.2,5.6,5.5,11.9,5.6,18.8c0.3-0.3,0.7-0.7,1-1c-5.2,0-10.3,0-15.5,0c0.3,0.3,0.7,0.7,1,1
				c0.1-6.9,1.5-13.2,5.6-18.8c0.8-1-1-2-1.7-1c-4.4,5.9-5.8,12.5-5.9,19.8c0,0.5,0.5,1,1,1c5.2,0,10.3,0,15.5,0c0.5,0,1-0.5,1-1
				c-0.1-7.2-1.5-13.9-5.9-19.8C16.7,26.3,14.9,27.3,15.7,28.3L15.7,28.3z"/>
		</g>
		<g display="inline">
			<path fill="#2C17E6" d="M34.2,28.3c4.2,5.6,5.5,11.9,5.6,18.8c0.3-0.3,0.7-0.7,1-1c-5.2,0-10.3,0-15.5,0c0.3,0.3,0.7,0.7,1,1
				c0.1-6.9,1.5-13.2,5.6-18.8c0.8-1-1-2-1.7-1c-4.4,5.9-5.8,12.5-5.9,19.8c0,0.5,0.5,1,1,1c5.2,0,10.3,0,15.5,0c0.5,0,1-0.5,1-1
				c-0.1-7.2-1.5-13.9-5.9-19.8C35.2,26.3,33.5,27.3,34.2,28.3L34.2,28.3z"/>
		</g>
	</g>
	<g>
		<g>
			<path fill="#2C17E6" d="M15.9,28.2c1,1.4,2,2.8,2.7,4.3c0.5,0.9,1.9,0.1,1.4-0.8c-0.8-1.5-1.7-3-2.7-4.3
				C16.6,26.6,15.2,27.4,15.9,28.2L15.9,28.2z"/>
		</g>
		<g>
			<path fill="#2C17E6" d="M29.2,32.5c0.8-1.5,1.7-2.9,2.7-4.3c0.6-0.8-0.8-1.6-1.4-0.8c-1,1.3-1.9,2.8-2.7,4.3
				C27.3,32.6,28.7,33.4,29.2,32.5L29.2,32.5z"/>
		</g>
		<g>
			<path fill="#2C17E6" d="M34.4,28.2c2.6,3.5,4.2,7.2,5.1,11.4c0.2,0.9,0.2,6.7,1.3,6.7c-0.5,0-0.9,0-1.4,0c-5.2,0-10.4,0-15.6,0
				s-10.4,0-15.6,0c-0.5,0-0.9,0-1.4,0c1.1,0,1.2-5.7,1.3-6.7c0.7-4.2,2.5-8,5.1-11.4c0.6-0.8-0.8-1.6-1.4-0.8
				c-4.3,5.9-5.8,12.5-5.9,19.7c0,0.4,0.4,0.8,0.8,0.8c11.3,0,22.7,0,34,0c0.4,0,0.8-0.4,0.8-0.8c-0.1-7.2-1.5-13.8-5.9-19.7
				C35.2,26.6,33.8,27.4,34.4,28.2L34.4,28.2z"/>
		</g>
	</g>
	<g>
		<path fill="#2C17E6" d="M17,47.1c0.1-7,1.5-13.2,5.7-18.9c0.6-0.8-0.8-1.6-1.4-0.8c-4.3,5.9-5.8,12.5-5.9,19.7
			C15.4,48.1,17,48.1,17,47.1L17,47.1z"/>
	</g>
	<g>
		<path fill="#2C17E6" d="M25.2,28.2c4.2,5.6,5.6,11.9,5.7,18.9c0,1,1.6,1,1.6,0c-0.1-7.2-1.5-13.8-5.9-19.7
			C26,26.6,24.6,27.4,25.2,28.2L25.2,28.2z"/>
	</g>
	<g>
		<path fill="#2C17E6" d="M37.6,26.8c-7.5,0-14.9,0-22.4,0c-1.4,0-2.8,0-4.2,0c-1.3,0,0.1-0.1,0.1,0.7c0-0.6,0-1.2,0-1.8
			c0-3.9,0-7.8,0-11.6c0,0.8-1.3,0.7-0.3,0.7c0.6,0,1.1,0,1.7,0c2,0,4.1,0,6.1,0c4.7,0,9.4,0,14.1,0c1.4,0,2.8,0,4.2,0
			c1.3,0-0.1,0.1-0.1-0.7c0,0.6,0,1.2,0,1.8c0,3.9,0,7.8,0,11.7c0,1,1.6,1,1.6,0c0-4.5,0-9,0-13.5c0-0.4-0.4-0.8-0.8-0.8
			c-9.1,0-18.2,0-27.3,0c-0.4,0-0.8,0.4-0.8,0.8c0,4.5,0,9,0,13.5c0,0.4,0.4,0.8,0.8,0.8c9.1,0,18.2,0,27.3,0
			C38.6,28.4,38.6,26.8,37.6,26.8z"/>
	</g>
	<g>
		<g>
			<path fill="#2C17E6" d="M12.6,13.7c-1.5-4.1-3-8.3-4.5-12.4C7.7,1.6,7.3,1.9,6.9,2.2c7.6,4,15.1,8.1,22.7,12.1
				c0.9,0.5,1.7-0.9,0.8-1.4c-7.6-4-15.1-8.1-22.7-12.1C7.1,0.6,6.3,1.1,6.5,1.8c1.5,4.1,3,8.3,4.5,12.4
				C11.4,15.1,12.9,14.7,12.6,13.7L12.6,13.7z"/>
		</g>
		<g>
			<path fill="#2C17E6" d="M30.9,13.2c-2-4.2-4-8.5-5.9-12.7c-0.4-0.9-1.8-0.1-1.4,0.8c2,4.2,4,8.5,5.9,12.7
				C29.9,15,31.3,14.2,30.9,13.2L30.9,13.2z"/>
		</g>
	</g>
	<g>
		<g>
			<path fill="#2C17E6" d="M37.5,14c1.5-4.1,2.9-8.2,4.4-12.3c0.3-0.7-0.6-1.2-1.2-0.9c-7.6,4-15.1,8.1-22.7,12.1
				c-0.9,0.5-0.1,1.9,0.8,1.4c7.6-4,15.1-8.1,22.7-12.1c-0.4-0.3-0.8-0.6-1.2-0.9c-1.5,4.1-2.9,8.2-4.4,12.3
				C35.6,14.6,37.2,15,37.5,14L37.5,14z"/>
		</g>
		<g>
			<path fill="#2C17E6" d="M19,14c2-4.2,4-8.5,5.9-12.7c0.4-0.9-0.9-1.7-1.4-0.8c-2,4.2-4,8.5-5.9,12.7C17.2,14.2,18.5,15,19,14
				L19,14z"/>
		</g>
	</g>
	<g>
		<path fill="#2C17E6" d="M15.8,14.8c0.1,4.1,2.5,5.8,6.4,5.9c-0.3-0.3-0.5-0.5-0.8-0.8c0,1.1,0,2.2,0,3.4c0.3-0.3,0.5-0.5,0.8-0.8
			c-2.4,0-4.7,0-7.1,0c-0.4,0-0.8,0.4-0.8,0.8c0,1.2,0,2.4,0,3.6c0,1,1.6,1,1.6,0c0-1.2,0-2.4,0-3.6c-0.3,0.3-0.5,0.5-0.8,0.8
			c2.4,0,4.7,0,7.1,0c0.4,0,0.8-0.4,0.8-0.8c0-1.1,0-2.2,0-3.4c0-0.4-0.4-0.8-0.8-0.8c-3,0-4.7-1-4.8-4.3
			C17.4,13.8,15.8,13.8,15.8,14.8L15.8,14.8z"/>
	</g>
	<g>
		<path fill="#2C17E6" d="M25.4,14.6c0,1.6,0,3.1,0,4.7c0,0.4,0.4,0.8,0.8,0.8c1.4-0.1,2.9,0.1,4.2,0.6c2.7,0.9,2.3,3.7,2.3,5.9
			c0,1,1.6,1,1.6,0c0-2.4,0.3-5-1.8-6.6c-1.8-1.3-4.1-1.6-6.3-1.5c0.3,0.3,0.5,0.5,0.8,0.8c0-1.6,0-3.1,0-4.7
			C27,13.6,25.4,13.6,25.4,14.6L25.4,14.6z"/>
	</g>
	<g>
		<path fill="#2C17E6" d="M30.4,27.4c0-1.4-0.3-2.8-1.3-3.9c-0.8-0.8-1.9-1.1-3-1.1c-0.4,0-0.8,0.4-0.8,0.8c0,1.4,0,2.7,0,4.1
			c0,1,1.6,1,1.6,0c0-1.4,0-2.7,0-4.1c-0.3,0.3-0.5,0.5-0.8,0.8c2,0,2.7,1.5,2.8,3.4C28.8,28.4,30.4,28.4,30.4,27.4L30.4,27.4z"/>
	</g>
	<g>
		<path fill="#2C17E6" d="M10.6,19.1c2.3,0,4.6,0,6.9,0c1,0,1-1.6,0-1.6c-2.3,0-4.6,0-6.9,0C9.6,17.5,9.6,19.1,10.6,19.1L10.6,19.1z
			"/>
	</g>
	<g>
		<path fill="#2C17E6" d="M29.3,25.2c1.4-0.4,2.7-0.7,4.1-1.1c1-0.3,0.6-1.8-0.4-1.5c-1.4,0.4-2.7,0.7-4.1,1.1
			C27.9,23.9,28.3,25.5,29.3,25.2L29.3,25.2z"/>
	</g>
	<g>
		<path fill="#2C17E6" d="M28.7,23.4c0.4-1.1,0.7-2.3,1.1-3.4c0.3-1-1.2-1.4-1.5-0.4c-0.4,1.1-0.7,2.3-1.1,3.4
			C26.8,24,28.4,24.4,28.7,23.4L28.7,23.4z"/>
	</g>
</g>
</svg>
