<?xml version="1.0" encoding="utf-8"?>
<!-- Generator: Adobe Illustrator 17.1.0, SVG Export Plug-In . SVG Version: 6.00 Build 0)  -->
<!DOCTYPE svg PUBLIC "-//W3C//DTD SVG 1.1 Tiny//EN" "http://www.w3.org/Graphics/SVG/1.1/DTD/svg11-tiny.dtd">
<svg version="1.1" baseProfile="tiny" id="Layer_1" xmlns="http://www.w3.org/2000/svg" xmlns:xlink="http://www.w3.org/1999/xlink"
	 x="0px" y="0px" viewBox="0 0 48 48" xml:space="preserve">
<g>
	<polygon fill="#2C17E6" points="33.3,16.5 26.6,12.7 27.3,11.4 34,15.2 33.3,16.5 	"/>
	<polygon fill="#2C17E6" points="34.8,13.5 27.4,9.8 28.1,8.4 35.5,12.2 34.8,13.5 	"/>
	<polygon fill="#2C17E6" points="14.7,16.5 14,15.2 20.7,11.4 21.4,12.7 14.7,16.5 	"/>
	<polygon fill="#2C17E6" points="13.2,13.5 12.5,12.2 19.9,8.4 20.6,9.8 13.2,13.5 	"/>
	<polygon fill="#2C17E6" points="27.3,36.6 26.6,35.3 33.3,31.5 34,32.8 27.3,36.6 	"/>
	<polygon fill="#2C17E6" points="28.1,39.6 27.4,38.2 34.8,34.5 35.5,35.8 28.1,39.6 	"/>
	<polygon fill="#2C17E6" points="20.7,36.6 14,32.8 14.7,31.5 21.4,35.3 20.7,36.6 	"/>
	<polygon fill="#2C17E6" points="19.9,39.6 12.5,35.8 13.2,34.5 20.6,38.2 19.9,39.6 	"/>
	<path fill="#2C17E6" d="M24,47.8c-0.4,0-0.7-0.3-0.7-0.7v-4.5c0-0.4,0.3-0.7,0.7-0.7c0.4,0,0.7,0.3,0.7,0.7v4.5
		C24.7,47.5,24.4,47.8,24,47.8L24,47.8z"/>
	<path fill="#2C17E6" d="M24,5.4c-0.4,0-0.7-0.3-0.7-0.7V0.9c0-0.4,0.3-0.7,0.7-0.7c0.4,0,0.7,0.3,0.7,0.7v3.7
		C24.7,5.1,24.4,5.4,24,5.4L24,5.4z"/>
	<path fill="#2C17E6" d="M41.1,15.1c-0.3,0-0.5-0.1-0.7-0.4c-0.2-0.4,0-0.8,0.3-1l4.5-2.3c0.4-0.2,0.8,0,1,0.3c0.2,0.4,0,0.8-0.3,1
		L41.5,15C41.4,15.1,41.2,15.1,41.1,15.1L41.1,15.1z"/>
	<path fill="#2C17E6" d="M2.4,36.7c-0.3,0-0.5-0.1-0.7-0.4c-0.2-0.4,0-0.8,0.3-1L6.5,33c0.4-0.2,0.8,0,1,0.3c0.2,0.4,0,0.8-0.3,1
		l-4.5,2.3C2.6,36.6,2.5,36.7,2.4,36.7L2.4,36.7z"/>
	<path fill="#2C17E6" d="M45.6,36.7c-0.1,0-0.2,0-0.3-0.1l-4.5-2.3c-0.4-0.2-0.5-0.6-0.3-1c0.2-0.4,0.6-0.5,1-0.3l4.5,2.3
		c0.4,0.2,0.5,0.6,0.3,1C46.1,36.5,45.9,36.7,45.6,36.7L45.6,36.7z"/>
	<path fill="#2C17E6" d="M6.9,15.1c-0.1,0-0.2,0-0.3-0.1l-4.5-2.3c-0.4-0.2-0.5-0.6-0.3-1c0.2-0.4,0.6-0.5,1-0.3l4.5,2.3
		c0.4,0.2,0.5,0.6,0.3,1C7.4,15,7.1,15.1,6.9,15.1L6.9,15.1z"/>
	<polygon fill="#2C17E6" points="24.7,24.7 23.3,24.7 23.3,23.3 24.7,23.3 24.7,24.7 	"/>
	<polygon fill="#2C17E6" points="21.8,24.7 20.3,24.7 20.3,23.3 21.8,23.3 21.8,24.7 	"/>
	<polygon fill="#2C17E6" points="27.7,24.7 26.2,24.7 26.2,23.3 27.7,23.3 27.7,24.7 	"/>
	<path fill="#2C17E6" d="M24,6.1c-1.6,0-3,1.3-3,3c0,1.6,1.3,3,3,3c1.6,0,3-1.3,3-3C27,7.5,25.6,6.1,24,6.1L24,6.1z M24,13.6
		c-2.5,0-4.5-2-4.5-4.5c0-2.5,2-4.5,4.5-4.5c2.5,0,4.5,2,4.5,4.5C28.5,11.6,26.5,13.6,24,13.6L24,13.6z"/>
	<path fill="#2C17E6" d="M37.4,12.8c-1.6,0-3,1.3-3,3s1.3,3,3,3c1.6,0,3-1.3,3-3S39,12.8,37.4,12.8L37.4,12.8z M37.4,20.3
		c-2.5,0-4.5-2-4.5-4.5c0-2.5,2-4.5,4.5-4.5c2.5,0,4.5,2,4.5,4.5C41.9,18.3,39.9,20.3,37.4,20.3L37.4,20.3z"/>
	<path fill="#2C17E6" d="M37.4,29.2c-1.6,0-3,1.3-3,3c0,1.6,1.3,3,3,3c1.6,0,3-1.3,3-3C40.4,30.5,39,29.2,37.4,29.2L37.4,29.2z
		 M37.4,36.7c-2.5,0-4.5-2-4.5-4.5c0-2.5,2-4.5,4.5-4.5c2.5,0,4.5,2,4.5,4.5C41.9,34.7,39.9,36.7,37.4,36.7L37.4,36.7z"/>
	<path fill="#2C17E6" d="M10.6,12.8c-1.6,0-3,1.3-3,3s1.3,3,3,3c1.6,0,3-1.3,3-3S12.2,12.8,10.6,12.8L10.6,12.8z M10.6,20.3
		c-2.5,0-4.5-2-4.5-4.5c0-2.5,2-4.5,4.5-4.5c2.5,0,4.5,2,4.5,4.5C15.1,18.3,13.1,20.3,10.6,20.3L10.6,20.3z"/>
	<path fill="#2C17E6" d="M10.6,29.2c-1.6,0-3,1.3-3,3c0,1.6,1.3,3,3,3c1.6,0,3-1.3,3-3C13.6,30.5,12.2,29.2,10.6,29.2L10.6,29.2z
		 M10.6,36.7c-2.5,0-4.5-2-4.5-4.5c0-2.5,2-4.5,4.5-4.5c2.5,0,4.5,2,4.5,4.5C15.1,34.7,13.1,36.7,10.6,36.7L10.6,36.7z"/>
	<path fill="#2C17E6" d="M24,35.9c-1.6,0-3,1.3-3,3c0,1.6,1.3,3,3,3c1.6,0,3-1.3,3-3C27,37.3,25.6,35.9,24,35.9L24,35.9z M24,43.4
		c-2.5,0-4.5-2-4.5-4.5c0-2.5,2-4.5,4.5-4.5c2.5,0,4.5,2,4.5,4.5C28.5,41.4,26.5,43.4,24,43.4L24,43.4z"/>
	<polygon fill="#2C17E6" points="36.7,28.5 35.2,28.5 35.2,19.5 36.7,19.5 36.7,28.5 	"/>
	<polygon fill="#2C17E6" points="39.6,28.5 38.1,28.5 38.1,19.5 39.6,19.5 39.6,28.5 	"/>
	<polygon fill="#2C17E6" points="9.9,28.5 8.4,28.5 8.4,19.5 9.9,19.5 9.9,28.5 	"/>
	<polygon fill="#2C17E6" points="12.8,28.5 11.3,28.5 11.3,19.5 12.8,19.5 12.8,28.5 	"/>
</g>
</svg>
