<?xml version="1.0" encoding="utf-8"?>
<!-- Generator: Adobe Illustrator 17.1.0, SVG Export Plug-In . SVG Version: 6.00 Build 0)  -->
<!DOCTYPE svg PUBLIC "-//W3C//DTD SVG 1.1 Tiny//EN" "http://www.w3.org/Graphics/SVG/1.1/DTD/svg11-tiny.dtd">
<svg version="1.1" baseProfile="tiny" id="Layer_1" xmlns="http://www.w3.org/2000/svg" xmlns:xlink="http://www.w3.org/1999/xlink"
	 x="0px" y="0px" viewBox="0 0 48 48" xml:space="preserve">
<g>
	<path fill="#2C17E6" d="M41.8,32.9h-1.4V13.5c0-1.4-1.1-2.5-2.5-2.5H10c-1.4,0-2.5,1.1-2.5,2.5v19.4H6.2V13.5
		c0-2.1,1.7-3.9,3.9-3.9h28c2.1,0,3.9,1.7,3.9,3.9V32.9L41.8,32.9z"/>
	<polygon fill="#2C17E6" points="38.1,14.2 6.9,14.2 6.9,12.8 38.1,12.8 38.1,14.2 	"/>
	<path fill="#2C17E6" d="M1.5,34.7c0.3,1.3,1.5,2.2,2.8,2.2h39.4c1.4,0,2.5-0.9,2.8-2.2H31.1v1.6H16.9v-1.6H1.5L1.5,34.7z
		 M43.7,38.3H4.3C1.9,38.3,0,36.4,0,34v-0.7h18.3v1.6h11.4v-1.6H48V34C48,36.4,46.1,38.3,43.7,38.3L43.7,38.3z"/>
	<polygon fill="#2C17E6" points="20.5,12.6 19.1,12.6 19.1,10.4 20.5,10.4 20.5,12.6 	"/>
	<path fill="#2C17E6" d="M34.9,19.2c-0.5,0-0.9,0.4-0.9,0.9c0,0.5,0.4,0.9,0.9,0.9s0.9-0.4,0.9-0.9C35.8,19.6,35.4,19.2,34.9,19.2
		L34.9,19.2z M34.9,22.5c-1.3,0-2.3-1-2.3-2.3c0-1.3,1-2.3,2.3-2.3s2.3,1,2.3,2.3C37.2,21.4,36.2,22.5,34.9,22.5L34.9,22.5z"/>
	<path fill="#2C17E6" d="M27.6,27.3c-0.5,0-0.9,0.4-0.9,0.9c0,0.5,0.4,0.9,0.9,0.9c0.5,0,0.9-0.4,0.9-0.9
		C28.5,27.7,28.1,27.3,27.6,27.3L27.6,27.3z M27.6,30.6c-1.3,0-2.3-1-2.3-2.3c0-1.3,1-2.3,2.3-2.3s2.3,1,2.3,2.3
		C29.9,29.5,28.9,30.6,27.6,30.6L27.6,30.6z"/>
	<path fill="#2C17E6" d="M20.3,20.8c-0.5,0-0.9,0.4-0.9,0.9c0,0.5,0.4,0.9,0.9,0.9c0.5,0,0.9-0.4,0.9-0.9
		C21.2,21.3,20.8,20.8,20.3,20.8L20.3,20.8z M20.3,24.1c-1.3,0-2.3-1-2.3-2.3c0-1.3,1-2.3,2.3-2.3c1.3,0,2.3,1,2.3,2.3
		C22.6,23,21.6,24.1,20.3,24.1L20.3,24.1z"/>
	<path fill="#2C17E6" d="M13,25.2c-0.5,0-0.9,0.4-0.9,0.9c0,0.5,0.4,0.9,0.9,0.9c0.5,0,0.9-0.4,0.9-0.9C13.9,25.6,13.5,25.2,13,25.2
		L13,25.2z M13,28.4c-1.3,0-2.3-1-2.3-2.3c0-1.3,1-2.3,2.3-2.3c1.3,0,2.3,1,2.3,2.3C15.3,27.3,14.3,28.4,13,28.4L13,28.4z"/>
	<polygon fill="#2C17E6" points="14.7,25.9 14,24.6 18.5,22 19.3,23.2 14.7,25.9 	"/>
	<polygon fill="#2C17E6" points="25.9,27.7 21,23.4 22,22.3 26.9,26.6 25.9,27.7 	"/>
	<polygon fill="#2C17E6" points="29.2,27.5 28.2,26.6 33.3,20.9 34.3,21.8 29.2,27.5 	"/>
</g>
</svg>
