<?xml version="1.0" encoding="utf-8"?>
<!-- Generator: Adobe Illustrator 17.1.0, SVG Export Plug-In . SVG Version: 6.00 Build 0)  -->
<!DOCTYPE svg PUBLIC "-//W3C//DTD SVG 1.1 Tiny//EN" "http://www.w3.org/Graphics/SVG/1.1/DTD/svg11-tiny.dtd">
<svg version="1.1" baseProfile="tiny" id="Layer_1" xmlns="http://www.w3.org/2000/svg" xmlns:xlink="http://www.w3.org/1999/xlink"
	 x="0px" y="0px" viewBox="0 0 48 48" xml:space="preserve">
<g>
	<g>
		<rect x="17.2" y="20.4" fill="#2C17E6" width="2" height="1.8"/>
		<rect x="13.3" y="20.4" fill="#2C17E6" width="2" height="1.8"/>
		<rect x="9.3" y="20.4" fill="#2C17E6" width="2" height="1.8"/>
	</g>
	<g>
		<rect x="37.1" y="46.1" fill="#2C17E6" width="7.6" height="1.8"/>
		<polygon fill="#2C17E6" points="44.7,44.1 36.7,44.1 31.1,38.5 32.3,37.2 37.4,42.3 44.7,42.3 		"/>
	</g>
	<g>
		<rect x="1.5" y="1" fill="#2C17E6" width="7.6" height="1.8"/>
		<polygon fill="#2C17E6" points="13.8,11.7 8.7,6.6 1.5,6.6 1.5,4.8 9.4,4.8 15.1,10.4 		"/>
	</g>
	<g>
		<path fill="#2C17E6" d="M23.1,46.9c-5.3,0-10.5-1.9-14.5-5.3L7.8,41l17.4-17.4h20.3v0.9C45.5,36.8,35.5,46.9,23.1,46.9z
			 M10.4,40.8c3.6,2.8,8.1,4.3,12.6,4.3c11.1,0,20.2-8.8,20.7-19.8H25.9L10.4,40.8z"/>
		<path fill="#2C17E6" d="M6.6,39.7L5.9,39c-3.4-4.1-5.3-9.2-5.3-14.5C0.6,12,10.7,2,23.1,2H24v20.3L6.6,39.7z M22.2,3.7
			c-11,0.5-19.8,9.6-19.8,20.7c0,4.6,1.5,9,4.3,12.6l15.5-15.5V3.7z"/>
	</g>
	<g>
		<path fill="#2C17E6" d="M38.1,3.9c-0.5-0.3-1-0.7-1.5-1L26,13.5c0.6,0.2,1.2,0.4,1.8,0.7L38.1,3.9z"/>
		<path fill="#2C17E6" d="M40.6,5.9c-0.4-0.4-0.9-0.8-1.3-1.2L29.1,14.9c0.5,0.3,1,0.7,1.4,1.1L40.6,5.9z"/>
		<path fill="#2C17E6" d="M35.2,2.2c-0.6-0.3-1.2-0.5-1.7-0.7l-7.6,7.6v2.5L35.2,2.2z"/>
		<path fill="#2C17E6" d="M25.8,0.1v2.5l2.4-2.4C27.4,0.1,26.6,0.1,25.8,0.1L25.8,0.1z"/>
		<path fill="#2C17E6" d="M31.9,1c-0.7-0.2-1.3-0.4-2-0.5l-4.1,4.1v2.5L31.9,1z"/>
		<path fill="#2C17E6" d="M42.7,8.3c-0.4-0.5-0.8-0.9-1.2-1.3L31.5,17.1c0.4,0.4,0.7,0.9,1.1,1.4L42.7,8.3z"/>
		<path fill="#2C17E6" d="M47,17.6c-0.1-0.7-0.3-1.4-0.5-2l-6.1,6.1h2.5L47,17.6z"/>
		<path fill="#2C17E6" d="M47.4,21.7c0-0.8,0-1.6-0.1-2.4l-2.4,2.4H47.4L47.4,21.7z"/>
		<path fill="#2C17E6" d="M44.6,11c-0.3-0.5-0.6-1-1-1.5L33.3,19.8c0.3,0.6,0.5,1.2,0.7,1.8L44.6,11z"/>
		<path fill="#2C17E6" d="M46,14c-0.2-0.6-0.5-1.2-0.7-1.7l-9.4,9.4h2.5L46,14z"/>
	</g>
</g>
</svg>
