<?xml version="1.0" encoding="utf-8"?>
<!-- Generator: Adobe Illustrator 17.1.0, SVG Export Plug-In . SVG Version: 6.00 Build 0)  -->
<!DOCTYPE svg PUBLIC "-//W3C//DTD SVG 1.1 Tiny//EN" "http://www.w3.org/Graphics/SVG/1.1/DTD/svg11-tiny.dtd">
<svg version="1.1" baseProfile="tiny" id="Layer_1" xmlns="http://www.w3.org/2000/svg" xmlns:xlink="http://www.w3.org/1999/xlink"
	 x="0px" y="0px" viewBox="0 0 48 48" xml:space="preserve">
<g>
	<path fill="#2C17E6" d="M47.6,8.7c-0.5-1.1-1.7-2.4-4.4-2.4c-1.9,0-4.1,0.7-5.4,1.3l-8,3.7L13.9,8.9l-5,2.3l10.4,5l-6.4,3l-8.5-3.7
		c-0.3-0.1-0.6-0.1-0.9,0l-2.9,1.3C0.3,17,0.1,17.3,0,17.7c-0.1,0.4,0,0.7,0.2,1l8.6,9.9C9,28.6,9,28.7,9.1,28.7
		c1.5,1.5,4,1.9,6,0.9l8.4-3.9l-0.7,14.8c0,0.4,0.2,0.8,0.5,1c0.2,0.1,0.4,0.2,0.6,0.2c0.2,0,0.3,0,0.5-0.1l3.8-1.8
		c0.3-0.1,0.5-0.4,0.6-0.7l6.5-18.9l6.9-3.2c1.1-0.5,2.8-1.6,4.1-3.1C48.3,11.6,48.2,9.8,47.6,8.7z M11.6,11.2l2.5-1.2L28,12.2
		l-7.3,3.4L11.6,11.2z M45.3,12.7c-1,1.1-2.6,2.2-3.6,2.6l-7.4,3.4c-0.3,0.1-0.5,0.4-0.6,0.7l-6.4,18.5l-2.8,1.5l0.7-14.8
		c0-0.4-0.2-0.8-0.5-1c-0.2-0.1-0.4-0.2-0.6-0.2c-0.2,0-0.3,0-0.5,0.1l-9.6,4.5c-1.2,0.6-2.7,0.3-3.6-0.6c0,0-0.1-0.1-0.1-0.1
		l-8.2-9.2l1.9-0.9l8.2,3.6c0.3,0.1,0.6,0.1,0.9,0l25.5-12c1.1-0.5,3.2-1.1,4.8-1.1c1.9,0,2.6,1.4,2.7,1.6
		C46.6,10.3,45.9,12.1,45.3,12.7z"/>
	<path fill="#2C17E6" d="M24.3,19.5l-1,0.5c-0.3,0.1-0.4,0.5-0.3,0.8c0.1,0.2,0.3,0.3,0.5,0.3c0.1,0,0.2,0,0.2-0.1l1-0.5
		c0.3-0.1,0.4-0.5,0.3-0.7C25,19.5,24.6,19.4,24.3,19.5z"/>
	<path fill="#2C17E6" d="M16.2,23.3l-1,0.5c-0.3,0.1-0.4,0.5-0.3,0.8c0.1,0.2,0.3,0.3,0.5,0.3c0.1,0,0.2,0,0.2-0.1l1-0.5
		c0.3-0.1,0.4-0.5,0.3-0.7C16.8,23.3,16.5,23.2,16.2,23.3z"/>
	<path fill="#2C17E6" d="M20.3,21.4l-1,0.5C19,22,18.9,22.4,19,22.7c0.1,0.2,0.3,0.3,0.5,0.3c0.1,0,0.2,0,0.2-0.1l1-0.5
		c0.3-0.1,0.4-0.5,0.3-0.7C20.9,21.4,20.6,21.3,20.3,21.4z"/>
	<path fill="#2C17E6" d="M36.6,13.8l-1,0.5c-0.3,0.1-0.4,0.5-0.3,0.7c0.1,0.2,0.3,0.3,0.5,0.3c0.1,0,0.2,0,0.2-0.1l1-0.5
		c0.3-0.1,0.4-0.5,0.3-0.7C37.2,13.8,36.9,13.7,36.6,13.8z"/>
	<path fill="#2C17E6" d="M40.7,11.9l-1,0.5c-0.3,0.1-0.4,0.5-0.3,0.7c0.1,0.2,0.3,0.3,0.5,0.3c0.1,0,0.2,0,0.2-0.1l1-0.5
		c0.3-0.1,0.4-0.5,0.3-0.7C41.3,11.9,40.9,11.8,40.7,11.9z"/>
	<path fill="#2C17E6" d="M32.5,15.7l-1,0.5c-0.3,0.1-0.4,0.5-0.3,0.7c0.1,0.2,0.3,0.3,0.5,0.3c0.1,0,0.2,0,0.2-0.1l1-0.5
		c0.3-0.1,0.4-0.5,0.3-0.7C33.1,15.7,32.8,15.6,32.5,15.7z"/>
	<path fill="#2C17E6" d="M28.4,17.6l-1,0.5c-0.3,0.1-0.4,0.5-0.3,0.7c0.1,0.2,0.3,0.3,0.5,0.3c0.1,0,0.2,0,0.2-0.1l1-0.5
		c0.3-0.1,0.4-0.5,0.3-0.8C29,17.6,28.7,17.5,28.4,17.6z"/>
</g>
</svg>
