<?xml version="1.0" encoding="utf-8"?>
<!-- Generator: Adobe Illustrator 17.1.0, SVG Export Plug-In . SVG Version: 6.00 Build 0)  -->
<!DOCTYPE svg PUBLIC "-//W3C//DTD SVG 1.1 Tiny//EN" "http://www.w3.org/Graphics/SVG/1.1/DTD/svg11-tiny.dtd">
<svg version="1.1" baseProfile="tiny" id="Layer_1" xmlns="http://www.w3.org/2000/svg" xmlns:xlink="http://www.w3.org/1999/xlink"
	 x="0px" y="0px" viewBox="0 0 48 48" xml:space="preserve">
<g>
	<path fill="#2C17E6" d="M19.6,42.7h26.6V5.3H1.8v37.3h7.4c0.4-2.5,2.6-4.4,5.2-4.4C17,38.3,19.2,40.2,19.6,42.7L19.6,42.7z
		 M48,44.4H17.9v-0.9c0-1.9-1.6-3.5-3.5-3.5c-1.9,0-3.5,1.6-3.5,3.5v0.9H0V3.6h48V44.4L48,44.4z"/>
	<polygon fill="#2C17E6" points="4.8,43.6 3,43.6 3,38.6 4.8,38.6 4.8,43.6 	"/>
	<polygon fill="#2C17E6" points="8.2,43.6 6.4,43.6 6.4,38.6 8.2,38.6 8.2,43.6 	"/>
	<polygon fill="#2C17E6" points="22,43.6 20.2,43.6 20.2,38.6 22,38.6 22,43.6 	"/>
	<polygon fill="#2C17E6" points="25.4,43.6 23.6,43.6 23.6,38.6 25.4,38.6 25.4,43.6 	"/>
	<polygon fill="#2C17E6" points="28.8,43.6 27,43.6 27,38.6 28.8,38.6 28.8,43.6 	"/>
	<polygon fill="#2C17E6" points="32.2,43.6 30.4,43.6 30.4,38.6 32.2,38.6 32.2,43.6 	"/>
	<polygon fill="#2C17E6" points="35.6,43.6 33.9,43.6 33.9,38.6 35.6,38.6 35.6,43.6 	"/>
	<polygon fill="#2C17E6" points="39,43.6 37.3,43.6 37.3,38.6 39,38.6 39,43.6 	"/>
	<polygon fill="#2C17E6" points="42.4,43.6 40.7,43.6 40.7,38.6 42.4,38.6 42.4,43.6 	"/>
	<polygon fill="#2C17E6" points="10.4,14.1 0.9,14.1 0.9,12.4 10.4,12.4 10.4,14.1 	"/>
	<polygon fill="#2C17E6" points="15.2,20.7 0.9,20.7 0.9,19 14.5,19 19.2,14.3 20.4,15.6 15.2,20.7 	"/>
	<polygon fill="#2C17E6" points="31.7,30.6 25,23.9 25,4.4 26.8,4.4 26.8,23.2 32.9,29.3 31.7,30.6 	"/>
	<polygon fill="#2C17E6" points="35.1,16 33.3,16 33.3,4.4 35.1,4.4 35.1,16 	"/>
	<polygon fill="#2C17E6" points="47.1,20 43.3,20 43.3,18.2 47.1,18.2 47.1,20 	"/>
	<polygon fill="#2C17E6" points="11,32.1 0.9,32.1 0.9,30.3 11,30.3 11,32.1 	"/>
	<path fill="#2C17E6" d="M12.6,11.9c-0.7,0-1.3,0.6-1.3,1.3c0,0.7,0.6,1.3,1.3,1.3c0.7,0,1.3-0.6,1.3-1.3
		C13.9,12.5,13.3,11.9,12.6,11.9L12.6,11.9z M12.6,16.4c-1.7,0-3.1-1.4-3.1-3.1c0-1.7,1.4-3.1,3.1-3.1c1.7,0,3.1,1.4,3.1,3.1
		C15.7,15,14.3,16.4,12.6,16.4L12.6,16.4z"/>
	<path fill="#2C17E6" d="M12.6,29.9c-0.7,0-1.3,0.6-1.3,1.3c0,0.7,0.6,1.3,1.3,1.3c0.7,0,1.3-0.6,1.3-1.3
		C13.9,30.4,13.3,29.9,12.6,29.9L12.6,29.9z M12.6,34.3c-1.7,0-3.1-1.4-3.1-3.1c0-1.7,1.4-3.1,3.1-3.1c1.7,0,3.1,1.4,3.1,3.1
		C15.7,32.9,14.3,34.3,12.6,34.3L12.6,34.3z"/>
	<path fill="#2C17E6" d="M21.1,11.9c-0.7,0-1.3,0.6-1.3,1.3c0,0.7,0.6,1.3,1.3,1.3c0.7,0,1.3-0.6,1.3-1.3
		C22.4,12.5,21.8,11.9,21.1,11.9L21.1,11.9z M21.1,16.4c-1.7,0-3.1-1.4-3.1-3.1c0-1.7,1.4-3.1,3.1-3.1c1.7,0,3.1,1.4,3.1,3.1
		C24.2,15,22.8,16.4,21.1,16.4L21.1,16.4z"/>
	<path fill="#2C17E6" d="M33.6,30.1c-0.7,0-1.3,0.6-1.3,1.3c0,0.7,0.6,1.3,1.3,1.3c0.7,0,1.3-0.6,1.3-1.3
		C34.9,30.7,34.3,30.1,33.6,30.1L33.6,30.1z M33.6,34.6c-1.7,0-3.1-1.4-3.1-3.1c0-1.7,1.4-3.1,3.1-3.1c1.7,0,3.1,1.4,3.1,3.1
		C36.7,33.2,35.3,34.6,33.6,34.6L33.6,34.6z"/>
	<path fill="#2C17E6" d="M34.2,16.9c-0.7,0-1.3,0.6-1.3,1.3c0,0.7,0.6,1.3,1.3,1.3c0.7,0,1.3-0.6,1.3-1.3
		C35.6,17.5,35,16.9,34.2,16.9L34.2,16.9z M34.2,21.3c-1.7,0-3.1-1.4-3.1-3.1c0-1.7,1.4-3.1,3.1-3.1c1.7,0,3.1,1.4,3.1,3.1
		C37.3,19.9,35.9,21.3,34.2,21.3L34.2,21.3z"/>
	<path fill="#2C17E6" d="M41,17.8c-0.7,0-1.3,0.6-1.3,1.3c0,0.7,0.6,1.3,1.3,1.3s1.3-0.6,1.3-1.3C42.4,18.4,41.8,17.8,41,17.8
		L41,17.8z M41,22.2c-1.7,0-3.1-1.4-3.1-3.1c0-1.7,1.4-3.1,3.1-3.1c1.7,0,3.1,1.4,3.1,3.1C44.1,20.8,42.8,22.2,41,22.2L41,22.2z"/>
	<path fill="#2C17E6" d="M21.5,29.9c-0.7,0-1.3,0.6-1.3,1.3c0,0.7,0.6,1.3,1.3,1.3c0.7,0,1.3-0.6,1.3-1.3
		C22.9,30.4,22.3,29.9,21.5,29.9L21.5,29.9z M21.5,34.3c-1.7,0-3.1-1.4-3.1-3.1c0-1.7,1.4-3.1,3.1-3.1c1.7,0,3.1,1.4,3.1,3.1
		C24.6,32.9,23.2,34.3,21.5,34.3L21.5,34.3z"/>
	<path fill="#2C17E6" d="M41,8.1c-0.7,0-1.3,0.6-1.3,1.3c0,0.7,0.6,1.3,1.3,1.3s1.3-0.6,1.3-1.3C42.4,8.7,41.8,8.1,41,8.1L41,8.1z
		 M41,12.6c-1.7,0-3.1-1.4-3.1-3.1c0-1.7,1.4-3.1,3.1-3.1c1.7,0,3.1,1.4,3.1,3.1C44.1,11.2,42.8,12.6,41,12.6L41,12.6z"/>
	<polygon fill="#2C17E6" points="41.9,7.3 40.1,7.3 40.1,4.4 41.9,4.4 41.9,7.3 	"/>
	<polygon fill="#2C17E6" points="47.1,29 41,29 41,27.2 47.1,27.2 47.1,29 	"/>
</g>
</svg>
