<?xml version="1.0" encoding="utf-8"?>
<!-- Generator: Adobe Illustrator 17.1.0, SVG Export Plug-In . SVG Version: 6.00 Build 0)  -->
<!DOCTYPE svg PUBLIC "-//W3C//DTD SVG 1.1 Tiny//EN" "http://www.w3.org/Graphics/SVG/1.1/DTD/svg11-tiny.dtd">
<svg version="1.1" baseProfile="tiny" id="Layer_1" xmlns="http://www.w3.org/2000/svg" xmlns:xlink="http://www.w3.org/1999/xlink"
	 x="0px" y="0px" viewBox="0 0 48 48" xml:space="preserve">
<g>
	<path fill="#2C17E6" d="M24,30.7c0.1,0,0.2,0,0.3,0.1L36,36l-5.2-11.7c-0.1-0.2-0.1-0.4,0-0.6L36,12l-11.7,5.2
		c-0.2,0.1-0.4,0.1-0.6,0L12,12l5.2,11.7c0.1,0.2,0.1,0.4,0,0.6L12,36l11.7-5.2C23.8,30.8,23.9,30.7,24,30.7L24,30.7z M37.5,38.2
		c-0.1,0-0.2,0-0.3-0.1L24,32.3l-13.2,5.9c-0.3,0.1-0.6,0.1-0.8-0.2c-0.2-0.2-0.3-0.6-0.2-0.8L15.7,24L9.8,10.8
		C9.7,10.5,9.8,10.2,10,10c0.2-0.2,0.6-0.3,0.8-0.2L24,15.7l13.2-5.9c0.3-0.1,0.6-0.1,0.8,0.2c0.2,0.2,0.3,0.6,0.2,0.8L32.3,24
		l5.9,13.2c0.1,0.3,0.1,0.6-0.2,0.8C37.9,38.2,37.7,38.2,37.5,38.2L37.5,38.2z"/>
	<path fill="#2C17E6" d="M10.5,1.5c-5,0-9,4-9,9c0,5,4,9,9,9c5,0,9-4,9-9C19.5,5.5,15.5,1.5,10.5,1.5L10.5,1.5z M10.5,21
		C4.7,21,0,16.3,0,10.5C0,4.7,4.7,0,10.5,0C16.3,0,21,4.7,21,10.5C21,16.3,16.3,21,10.5,21L10.5,21z"/>
	<path fill="#2C17E6" d="M18,10.5h-1.5c0-3.3-2.7-6-6-6V3C14.6,3,18,6.4,18,10.5L18,10.5z"/>
	<path fill="#2C17E6" d="M10.5,18C6.4,18,3,14.6,3,10.5h1.5c0,3.3,2.7,6,6,6V18L10.5,18z"/>
	<path fill="#2C17E6" d="M7.8,14.1C6.7,13.2,6,11.9,6,10.5C6,8,8,6,10.5,6c1,0,1.9,0.3,2.7,0.9l-0.9,1.2c-0.5-0.4-1.1-0.6-1.8-0.6
		c-1.7,0-3,1.3-3,3c0,1,0.4,1.8,1.2,2.4L7.8,14.1L7.8,14.1z"/>
	<path fill="#2C17E6" d="M37.5,1.5c-5,0-9,4-9,9c0,5,4,9,9,9c5,0,9-4,9-9C46.5,5.5,42.5,1.5,37.5,1.5L37.5,1.5z M37.5,21
		C31.7,21,27,16.3,27,10.5C27,4.7,31.7,0,37.5,0C43.3,0,48,4.7,48,10.5C48,16.3,43.3,21,37.5,21L37.5,21z"/>
	<path fill="#2C17E6" d="M31.5,10.5H30C30,6.4,33.4,3,37.5,3v1.5C34.2,4.5,31.5,7.2,31.5,10.5L31.5,10.5z"/>
	<path fill="#2C17E6" d="M37.5,18v-1.5c3.3,0,6-2.7,6-6H45C45,14.6,41.6,18,37.5,18L37.5,18z"/>
	<path fill="#2C17E6" d="M40.2,14.1l-0.9-1.2c0.8-0.6,1.2-1.4,1.2-2.4c0-1.7-1.3-3-3-3c-0.7,0-1.3,0.2-1.8,0.6l-0.9-1.2
		C35.6,6.3,36.5,6,37.5,6C40,6,42,8,42,10.5C42,11.9,41.3,13.2,40.2,14.1L40.2,14.1z"/>
	<path fill="#2C17E6" d="M10.5,28.5c-5,0-9,4-9,9c0,5,4,9,9,9c5,0,9-4,9-9C19.5,32.5,15.5,28.5,10.5,28.5L10.5,28.5z M10.5,48
		C4.7,48,0,43.3,0,37.5C0,31.7,4.7,27,10.5,27C16.3,27,21,31.7,21,37.5C21,43.3,16.3,48,10.5,48L10.5,48z"/>
	<path fill="#2C17E6" d="M10.5,45v-1.5c3.3,0,6-2.7,6-6H18C18,41.6,14.6,45,10.5,45L10.5,45z"/>
	<path fill="#2C17E6" d="M4.5,37.5H3c0-4.1,3.4-7.5,7.5-7.5v1.5C7.2,31.5,4.5,34.2,4.5,37.5L4.5,37.5z"/>
	<path fill="#2C17E6" d="M10.5,42C8,42,6,40,6,37.5c0-1.4,0.7-2.7,1.8-3.6l0.9,1.2c-0.8,0.6-1.2,1.4-1.2,2.4c0,1.7,1.3,3,3,3
		c0.7,0,1.3-0.2,1.8-0.6l0.9,1.2C12.4,41.7,11.5,42,10.5,42L10.5,42z"/>
	<path fill="#2C17E6" d="M37.5,28.5c-5,0-9,4-9,9c0,5,4,9,9,9c5,0,9-4,9-9C46.5,32.5,42.5,28.5,37.5,28.5L37.5,28.5z M37.5,48
		C31.7,48,27,43.3,27,37.5C27,31.7,31.7,27,37.5,27C43.3,27,48,31.7,48,37.5C48,43.3,43.3,48,37.5,48L37.5,48z"/>
	<path fill="#2C17E6" d="M37.5,45c-4.1,0-7.5-3.4-7.5-7.5h1.5c0,3.3,2.7,6,6,6V45L37.5,45z"/>
	<path fill="#2C17E6" d="M45,37.5h-1.5c0-3.3-2.7-6-6-6V30C41.6,30,45,33.4,45,37.5L45,37.5z"/>
	<path fill="#2C17E6" d="M37.5,42c-1,0-1.9-0.3-2.7-0.9l0.9-1.2c0.5,0.4,1.1,0.6,1.8,0.6c1.7,0,3-1.3,3-3c0-1-0.4-1.8-1.2-2.4
		l0.9-1.2c1.1,0.9,1.8,2.2,1.8,3.6C42,40,40,42,37.5,42L37.5,42z"/>
	<path fill="#2C17E6" d="M37.5,39c-0.8,0-1.5-0.7-1.5-1.5s0.7-1.5,1.5-1.5c0.8,0,1.5,0.7,1.5,1.5S38.3,39,37.5,39L37.5,39z"/>
	<path fill="#2C17E6" d="M37.5,12c-0.8,0-1.5-0.7-1.5-1.5C36,9.7,36.7,9,37.5,9c0.8,0,1.5,0.7,1.5,1.5C39,11.3,38.3,12,37.5,12
		L37.5,12z"/>
	<path fill="#2C17E6" d="M10.5,39C9.7,39,9,38.3,9,37.5S9.7,36,10.5,36c0.8,0,1.5,0.7,1.5,1.5S11.3,39,10.5,39L10.5,39z"/>
	<path fill="#2C17E6" d="M10.5,12C9.7,12,9,11.3,9,10.5C9,9.7,9.7,9,10.5,9c0.8,0,1.5,0.7,1.5,1.5C12,11.3,11.3,12,10.5,12L10.5,12z
		"/>
	<path fill="#2C17E6" d="M24,20.3c-2.1,0-3.7,1.7-3.7,3.7s1.7,3.7,3.7,3.7c2.1,0,3.7-1.7,3.7-3.7S26.1,20.3,24,20.3L24,20.3z
		 M24,29.3c-2.9,0-5.3-2.4-5.3-5.3s2.4-5.3,5.3-5.3c2.9,0,5.3,2.4,5.3,5.3S26.9,29.3,24,29.3L24,29.3z"/>
	<path fill="#2C17E6" d="M24,25.5c-0.8,0-1.5-0.7-1.5-1.5s0.7-1.5,1.5-1.5c0.8,0,1.5,0.7,1.5,1.5S24.8,25.5,24,25.5L24,25.5z"/>
</g>
</svg>
