<?xml version="1.0" encoding="utf-8"?>
<!-- Generator: Adobe Illustrator 17.1.0, SVG Export Plug-In . SVG Version: 6.00 Build 0)  -->
<!DOCTYPE svg PUBLIC "-//W3C//DTD SVG 1.1 Tiny//EN" "http://www.w3.org/Graphics/SVG/1.1/DTD/svg11-tiny.dtd">
<svg version="1.1" baseProfile="tiny" id="Layer_1" xmlns="http://www.w3.org/2000/svg" xmlns:xlink="http://www.w3.org/1999/xlink"
	 x="0px" y="0px" viewBox="0 0 48 48" xml:space="preserve">
<g>
	<path fill="#2C17E6" d="M15,43.6h20v-1.5H15V43.6L15,43.6z M36.5,45.2h-23v-4.5h23V45.2L36.5,45.2z"/>
	<path fill="#2C17E6" d="M27.6,4.4c-1.3,0-2.3,0.4-3.1,1.1c-2.4,2.4-0.9,7.9,3.3,12c4.1,4.1,9.6,5.6,12,3.3c2.4-2.4,0.9-7.9-3.3-12
		C33.7,6,30.3,4.4,27.6,4.4L27.6,4.4z M36.6,23.4c-3.1,0-6.8-1.7-9.9-4.9c-4.9-4.9-6.3-11.1-3.3-14.1c3.1-3.1,9.3-1.6,14.1,3.3
		c4.9,4.9,6.3,11.1,3.3,14.1C39.8,22.9,38.3,23.4,36.6,23.4L36.6,23.4z"/>
	<path fill="#2C17E6" d="M33.2,24.7c-3.1,0-6.5-1.1-9-3.6c-4.9-4.9-4.4-13-0.8-16.6l1.1,1.1c-3.1,3.1-3.4,10.3,0.8,14.5
		c4.2,4.2,11.4,3.9,14.5,0.8l1.1,1.1C39.1,23.6,36.2,24.7,33.2,24.7L33.2,24.7z"/>
	<polygon fill="#2C17E6" points="29.8,16.6 28.7,15.5 31,13.2 32.1,14.3 29.8,16.6 	"/>
	<path fill="#2C17E6" d="M32.8,11.4c-0.3,0-0.5,0.1-0.7,0.3c-0.4,0.4-0.4,1.1,0,1.5c0.4,0.4,1.1,0.4,1.5,0c0.2-0.2,0.3-0.5,0.3-0.7
		c0-0.3-0.1-0.5-0.3-0.7C33.3,11.6,33.1,11.4,32.8,11.4L32.8,11.4z M32.8,15.1c-0.7,0-1.3-0.3-1.8-0.8c-1-1-1-2.6,0-3.6
		c1-1,2.7-1,3.6,0c0.5,0.5,0.8,1.1,0.8,1.8c0,0.7-0.3,1.3-0.8,1.8C34.1,14.8,33.5,15.1,32.8,15.1L32.8,15.1z"/>
	<path fill="#2C17E6" d="M4.8,18.1c-3,3-4.1,7-2.4,8.7C4,28.5,8,27.4,11,24.3c3-3,4.1-7,2.4-8.7C11.8,14,7.8,15.1,4.8,18.1L4.8,18.1
		L4.8,18.1z M4.5,29.1c-1.3,0-2.5-0.4-3.3-1.2C-1.1,25.5,0,20.7,3.7,17l0,0c3.7-3.7,8.5-4.8,10.8-2.4c2.4,2.4,1.3,7.1-2.4,10.8
		C9.7,27.8,6.9,29.1,4.5,29.1L4.5,29.1z"/>
	<path fill="#2C17E6" d="M7.1,30c-2.3,0-4.5-0.8-5.9-2.1l1.1-1.1c1.1,1.1,3,1.7,4.9,1.7c2.2,0,4.2-0.9,5.6-2.3
		c1.4-1.4,2.2-3.4,2.3-5.6c0-2-0.6-3.8-1.7-4.9l1.1-1.1c1.4,1.4,2.2,3.7,2.1,6.1c0,2.6-1,4.9-2.7,6.6S9.9,30,7.3,30
		C7.2,30,7.2,30,7.1,30L7.1,30z"/>
	<polygon fill="#2C17E6" points="9.5,23.9 7.8,22.2 8.9,21.1 10.6,22.9 9.5,23.9 	"/>
	<path fill="#2C17E6" d="M7.4,20.1c-0.2,0-0.3,0.1-0.4,0.2c-0.2,0.2-0.2,0.6,0,0.8c0.2,0.2,0.6,0.2,0.8,0C7.9,21,8,20.9,8,20.7
		c0-0.2-0.1-0.3-0.2-0.4C7.7,20.2,7.6,20.1,7.4,20.1L7.4,20.1z M7.4,22.8c-0.5,0-1.1-0.2-1.5-0.6c-0.8-0.8-0.8-2.2,0-3
		c0.8-0.8,2.2-0.8,3,0c0.4,0.4,0.6,0.9,0.6,1.5c0,0.6-0.2,1.1-0.6,1.5C8.5,22.6,7.9,22.8,7.4,22.8L7.4,22.8z"/>
	<path fill="#2C17E6" d="M40.4,26.5c-0.4,0-0.9,0.1-1.2,0.4c-1,1-0.2,3.4,1.6,5.2c1.8,1.8,4.3,2.6,5.2,1.6c0.6-0.6,0.5-1.6,0.3-2.1
		c-0.3-1.1-0.9-2.2-1.9-3.1l0,0c-1-1-2.1-1.6-3.1-1.9C41.1,26.5,40.8,26.5,40.4,26.5L40.4,26.5z M44.8,35.7c-1.6,0-3.5-0.9-5.1-2.5
		c-2.5-2.5-3.2-5.8-1.6-7.4c0.8-0.8,2.1-1.1,3.6-0.7c1.3,0.3,2.7,1.1,3.8,2.3l0,0l0,0c1.2,1.2,2,2.5,2.3,3.8
		c0.4,1.5,0.1,2.7-0.7,3.6C46.5,35.4,45.7,35.7,44.8,35.7L44.8,35.7z"/>
	<path fill="#2C17E6" d="M43.1,36.3c0,0-0.1,0-0.1,0c-1.7,0-3.3-0.7-4.5-1.8c-1.2-1.2-1.8-2.8-1.8-4.5c0-1.6,0.5-3.2,1.5-4.1
		l1.1,1.1c-0.7,0.7-1,1.8-1,3c0,1.3,0.5,2.6,1.4,3.4c0.9,0.9,2.1,1.4,3.4,1.4c1.2,0,2.3-0.4,3-1l1.1,1.1
		C46.2,35.7,44.7,36.3,43.1,36.3L43.1,36.3z"/>
	<polygon fill="#2C17E6" points="41.8,32.2 40.7,31.2 42.6,29.3 43.6,30.4 41.8,32.2 	"/>
	<path fill="#2C17E6" d="M23.1,20.6c-0.8,0-1.5,0.7-1.5,1.5c0,0.8,0.7,1.5,1.5,1.5c0.8,0,1.5-0.7,1.5-1.5
		C24.7,21.3,24,20.6,23.1,20.6L23.1,20.6z M23.1,25.2c-1.7,0-3.1-1.4-3.1-3.1c0-1.7,1.4-3.1,3.1-3.1c1.7,0,3.1,1.4,3.1,3.1
		C26.2,23.8,24.8,25.2,23.1,25.2L23.1,25.2z"/>
	<polygon fill="#2C17E6" points="16.7,41.7 15.2,41.1 21.6,24 23.1,24.6 16.7,41.7 	"/>
	<polygon fill="#2C17E6" points="29.6,41.7 23.2,24.6 24.7,24 31.1,41.1 29.6,41.7 	"/>
	<polygon fill="#2C17E6" points="28.1,36.4 18.2,36.4 18.2,34.9 28.1,34.9 28.1,36.4 	"/>
	<polygon fill="#2C17E6" points="16.4,42 15.5,40.8 22.7,35.1 23.6,36.3 16.4,42 	"/>
	<polygon fill="#2C17E6" points="29.8,42.3 22.6,36.2 23.6,35.1 30.8,41.1 29.8,42.3 	"/>
	<polygon fill="#2C17E6" points="26.5,31.8 19.8,31.8 19.8,30.3 26.5,30.3 26.5,31.8 	"/>
	<path fill="#2C17E6" d="M14.6,27.4c-0.3,0-0.6,0.2-0.6,0.6c0,0.3,0.2,0.6,0.6,0.6c0.3,0,0.6-0.2,0.6-0.6
		C15.1,27.6,14.9,27.4,14.6,27.4L14.6,27.4z M14.6,30c-1.1,0-2.1-0.9-2.1-2.1c0-1.1,0.9-2.1,2.1-2.1c1.1,0,2.1,0.9,2.1,2.1
		C16.7,29.1,15.7,30,14.6,30L14.6,30z"/>
	<path fill="#2C17E6" d="M38,34.5c-0.3,0-0.6,0.2-0.6,0.6c0,0.3,0.2,0.6,0.6,0.6c0.3,0,0.6-0.2,0.6-0.6C38.6,34.8,38.3,34.5,38,34.5
		L38,34.5z M38,37.2c-1.1,0-2.1-0.9-2.1-2.1c0-1.1,0.9-2.1,2.1-2.1c1.1,0,2.1,0.9,2.1,2.1C40.1,36.2,39.2,37.2,38,37.2L38,37.2z"/>
	<polygon fill="#2C17E6" points="10.7,40.2 9.3,39.7 13.3,28.9 14.8,29.4 10.7,40.2 	"/>
	<polygon fill="#2C17E6" points="12.3,43.7 3,43.7 3,39.2 12.3,39.2 12.3,40.7 4.5,40.7 4.5,42.1 12.3,42.1 12.3,43.7 	"/>
	<polygon fill="#2C17E6" points="44.5,42.2 40,42.2 37.9,36.5 39.3,36 41,40.6 44.5,40.6 44.5,42.2 	"/>
</g>
</svg>
